<?xml version="1.0" standalone="no"?>
<!DOCTYPE svg PUBLIC "-//W3C//DTD SVG 20010904//EN"
 "http://www.w3.org/TR/2001/REC-SVG-20010904/DTD/svg10.dtd">
<svg version="1.0" xmlns="http://www.w3.org/2000/svg"
 width="300.000000pt" height="300.000000pt" viewBox="0 0 300.000000 300.000000"
 preserveAspectRatio="xMidYMid meet">
<metadata>
Created by potrace 1.11, written by Peter Selinger 2001-2013
</metadata>
<g transform="translate(0.000000,300.000000) scale(0.100000,-0.100000)"
fill="#000000" stroke="none">
<path d="M757 2953 c-2 -5 -3 -584 -3 -1288 l1 -1280 288 -1 287 -1 1 26 c0
14 1 240 2 501 l2 475 275 2 c151 1 291 2 311 2 32 1 48 13 150 114 63 63 129
130 147 151 l32 37 0 486 0 487 -148 148 -148 148 -596 0 c-328 0 -599 -3
-601 -7z"/>
<path d="M1722 1278 c-90 -13 -158 -60 -195 -133 -17 -35 -37 -132 -37 -184
l0 -36 103 0 102 0 7 55 c7 59 41 102 75 95 10 -2 24 -4 31 -4 25 -2 49 -60
50 -119 0 -105 -41 -152 -134 -156 -49 -1 -46 6 -46 -106 0 -110 -2 -105 43
-107 58 -2 98 -21 116 -57 19 -37 25 -155 11 -200 -24 -73 -104 -100 -153 -51
-24 23 -26 31 -29 80 -1 19 -8 20 -111 20 l-110 0 3 -59 c7 -161 121 -265 297
-272 152 -6 272 54 330 166 50 96 52 258 5 351 -23 43 -96 109 -122 109 -28 0
-21 15 20 43 67 44 102 141 98 269 -3 94 -24 152 -75 210 -59 67 -172 102
-279 86z"/>
</g>
</svg>
